<svg xmlns="http://www.w3.org/2000/svg" viewBox="0 0 1024 1024" width="1024" height="1024" xmlns:c2pa="http://c2pa.org/manifest"><metadata><c2pa:manifest>AAAWgmp1bWIAAAAeanVtZGMycGEAEQAQgAAAqgA4m3EDYzJwYQAAABZcanVtYgAAAEdqdW1kYzJtYQARABCAAACqADibcQN1cm46YzJwYTo5YTkzZTgwNy05NGFmLTQzN2YtODYxMS1lY2Y4OTBiOGMxZmIAAAADl2p1bWIAAAApanVtZGMyYXMAEQAQgAAAqgA4m3EDYzJwYS5hc3NlcnRpb25zAAAAALxqdW1iAAAARGp1bWRjYm9yABEAEIAAAKoAOJtxE2MycGEuaW5ncmVkaWVudC52MwAAAAAYYzJzaPmZcOGHddS3AbO8I6Z+KosAAABwY2JvcqNpZGM6Zm9ybWF0bWltYWdlL3N2Zyt4bWxqaW5zdGFuY2VJRHgseG1wOmlpZDphMmJiOTE2MC04NGVhLTRjYmItYjc1MC01ODExYzZkNzg5ODNscmVsYXRpb25zaGlwaHBhcmVudE9mAAAB4mp1bWIAAABBanVtZGNib3IAEQAQgAAAqgA4m3ETYzJwYS5hY3Rpb25zLnYyAAAAABhjMnNoNfJxFm4AYEJ4TZVTJvg7lwAAAZljYm9yomdhY3Rpb25zgqJmYWN0aW9ua2MycGEub3BlbmVkanBhcmFtZXRlcnOha2luZ3JlZGllbnRzgaJjdXJseC1zZWxmI2p1bWJmPWMycGEuYXNzZXJ0aW9ucy9jMnBhLmluZ3JlZGllbnQudjNkaGFzaFggnK5PxG2eYXzJWKVlw/+vZzDvWmQ8gR5fqokKOy3bz5CkZmFjdGlvbngdY29tLmFudGhyb3BpYy5jbGF1ZGUucHJvdmlkZWRqcGFyYW1ldGVyc6F4H2NvbS5hbnRocm9waWMub3JpZ2luLWNvbmZpZGVuY2VndW5rbm93bmtkZXNjcmlwdGlvbnhmQ2xhdWRlIHByb3ZpZGVkIHRoaXMgZmlsZSBhdCB0aGUgcmVxdWVzdCBvZiBhIHVzZXIgYW5kIG1heSBoYXZlIGNyZWF0ZWQgb3IgbW9kaWZpZWQgdGhlIGZpbGUgY29udGVudHMubXNvZnR3YXJlQWdlbnShZG5hbWVmQ2xhdWRlcmFsbEFjdGlvbnNJbmNsdWRlZPUAAADIanVtYgAAAEBqdW1kY2JvcgARABCAAACqADibcRNjMnBhLmhhc2guZGF0YQAAAAAYYzJzaILMOvMdfblhuClPTmbLt5IAAACAY2JvcqVjYWxnZnNoYTI1NmNwYWRNAAAAAAAAAAAAAAAAAGRoYXNoWCAXuoiNNCC0+rNAbq1gEugWtntvEpeB6MYIFFatWJmuYGRuYW1lbmp1bWJmIG1hbmlmZXN0amV4Y2x1c2lvbnOBomVzdGFydBiaZmxlbmd0aBkeBAAAAj5qdW1iAAAAJ2p1bWRjMmNsABEAEIAAAKoAOJtxA2MycGEuY2xhaW0udjIAAAACD2Nib3KlY2FsZ2ZzaGEyNTZpc2lnbmF0dXJleE1zZWxmI2p1bWJmPS9jMnBhL3VybjpjMnBhOjlhOTNlODA3LTk0YWYtNDM3Zi04NjExLWVjZjg5MGI4YzFmYi9jMnBhLnNpZ25hdHVyZWppbnN0YW5jZUlEeCx4bXA6aWlkOjc1ZThkZDA3LTc4NTktNGViNS1iOTU2LTI3Y2I3YTg5YjNhN3JjcmVhdGVkX2Fzc2VydGlvbnODomN1cmx4LXNlbGYjanVtYmY9YzJwYS5hc3NlcnRpb25zL2MycGEuaW5ncmVkaWVudC52M2RoYXNoWCCcrk/EbZ5hfMlYpWXD/69nMO9aZDyBHl+qiQo7LdvPkKJjdXJseCpzZWxmI2p1bWJmPWMycGEuYXNzZXJ0aW9ucy9jMnBhLmFjdGlvbnMudjJkaGFzaFggEIPfboVlsQSktxeriY3/1yu57gn4fYUeceQaUGPUShuiY3VybHgpc2VsZiNqdW1iZj1jMnBhLmFzc2VydGlvbnMvYzJwYS5oYXNoLmRhdGFkaGFzaFggVEKReo+Q2KQmS/vrkkYfe+epPJziZkuRqI5pXYbWZMl0Y2xhaW1fZ2VuZXJhdG9yX2luZm+jZG5hbWVvQW50aHJvcGljIEZpbGVzZ3ZlcnNpb25lMS4wLjBrc3BlY1ZlcnNpb25lMi40LjAAABA4anVtYgAAAChqdW1kYzJjcwARABCAAACqADibcQNjMnBhLnNpZ25hdHVyZQAAABAIY2JvctKEWQISogEmGCFZAgowggIGMIIBjaADAgECAhRA5aAK7sI50L64g/oGQgU9Z1UTADAKBggqhkjOPQQDAzBJMRcwFQYDVQQKEw5BbnRocm9waWMsIFBCQzEuMCwGA1UEAxMlQW50aHJvcGljIENvbnRlbnQgQ3JlZGVudGlhbHMgUm9vdCBDQTAeFw0yNjA4MDcxODQzNTZaFw0yODA4MDYxOTQzNTZaMEQxFzAVBgNVBAoTDkFudGhyb3BpYywgUEJDMSkwJwYDVQQDEyBBbnRocm9waWMgQ2xhdWRlIENvbnRlbnQgU2lnbmluZzBZMBMGByqGSM49AgEGCCqGSM49AwEHA0IABJh6CmvLUBgFFNU0vUKlOVtE6djd17L5SuwX0LemFisBM3dkd/3cyjxFA3Qo5S46fX0/ihY0VZ7mfb9KF703t5OjWDBWMA4GA1UdDwEB/wQEAwIHgDAVBgNVHSUEDjAMBgorBgEEAYPoXgIBMAwGA1UdEwEB/wQCMAAwHwYDVR0jBBgwFoAUzlHiBIFOZFsj+OPEz5o+nMHXXMIwCgYIKoZIzj0EAwMDZwAwZAIwMXMdFJ4BetLLVY7ORuE9noqbbAZOZn/aArXyTwFAZfKrPzxF2vPoJNf1+UCdg1XGAjBwX1zd9WGqYkqmL5SFqw1QySjr1zJfpJM9+1rdDwSPLMOPOjKuiXjoU/pUUeG9RwmhY3BhZFkNngAAAAAAAAAAAAAAAAAAAAAAAAAAAAAAAAAAAAAAAAAAAAAAAAAAAAAAAAAAAAAAAAAAAAAAAAAAAAAAAAAAAAAAAAAAAAAAAAAAAAAAAAAAAAAAAAAAAAAAAAAAAAAAAAAAAAAAAAAAAAAAAAAAAAAAAAAAAAAAAAAAAAAAAAAAAAAAAAAAAAAAAAAAAAAAAAAAAAAAAAAAAAAAAAAAAAAAAAAAAAAAAAAAAAAAAAAAAAAAAAAAAAAAAAAAAAAAAAAAAAAAAAAAAAAAAAAAAAAAAAAAAAAAAAAAAAAAAAAAAAAAAAAAAAAAAAAAAAAAAAAAAAAAAAAAAAAAAAAAAAAAAAAAAAAAAAAAAAAAAAAAAAAAAAAAAAAAAAAAAAAAAAAAAAAAAAAAAAAAAAAAAAAAAAAAAAAAAAAAAAAAAAAAAAAAAAAAAAAAAAAAAAAAAAAAAAAAAAAAAAAAAAAAAAAAAAAAAAAAAAAAAAAAAAAAAAAAAAAAAAAAAAAAAAAAAAAAAAAAAAAAAAAAAAAAAAAAAAAAAAAAAAAAAAAAAAAAAAAAAAAAAAAAAAAAAAAAAAAAAAAAAAAAAAAAAAAAAAAAAAAAAAAAAAAAAAAAAAAAAAAAAAAAAAAAAAAAAAAAAAAAAAAAAAAAAAAAAAAAAAAAAAAAAAAAAAAAAAAAAAAAAAAAAAAAAAAAAAAAAAAAAAAAAAAAAAAAAAAAAAAAAAAAAAAAAAAAAAAAAAAAAAAAAAAAAAAAAAAAAAAAAAAAAAAAAAAAAAAAAAAAAAAAAAAAAAAAAAAAAAAAAAAAAAAAAAAAAAAAAAAAAAAAAAAAAAAAAAAAAAAAAAAAAAAAAAAAAAAAAAAAAAAAAAAAAAAAAAAAAAAAAAAAAAAAAAAAAAAAAAAAAAAAAAAAAAAAAAAAAAAAAAAAAAAAAAAAAAAAAAAAAAAAAAAAAAAAAAAAAAAAAAAAAAAAAAAAAAAAAAAAAAAAAAAAAAAAAAAAAAAAAAAAAAAAAAAAAAAAAAAAAAAAAAAAAAAAAAAAAAAAAAAAAAAAAAAAAAAAAAAAAAAAAAAAAAAAAAAAAAAAAAAAAAAAAAAAAAAAAAAAAAAAAAAAAAAAAAAAAAAAAAAAAAAAAAAAAAAAAAAAAAAAAAAAAAAAAAAAAAAAAAAAAAAAAAAAAAAAAAAAAAAAAAAAAAAAAAAAAAAAAAAAAAAAAAAAAAAAAAAAAAAAAAAAAAAAAAAAAAAAAAAAAAAAAAAAAAAAAAAAAAAAAAAAAAAAAAAAAAAAAAAAAAAAAAAAAAAAAAAAAAAAAAAAAAAAAAAAAAAAAAAAAAAAAAAAAAAAAAAAAAAAAAAAAAAAAAAAAAAAAAAAAAAAAAAAAAAAAAAAAAAAAAAAAAAAAAAAAAAAAAAAAAAAAAAAAAAAAAAAAAAAAAAAAAAAAAAAAAAAAAAAAAAAAAAAAAAAAAAAAAAAAAAAAAAAAAAAAAAAAAAAAAAAAAAAAAAAAAAAAAAAAAAAAAAAAAAAAAAAAAAAAAAAAAAAAAAAAAAAAAAAAAAAAAAAAAAAAAAAAAAAAAAAAAAAAAAAAAAAAAAAAAAAAAAAAAAAAAAAAAAAAAAAAAAAAAAAAAAAAAAAAAAAAAAAAAAAAAAAAAAAAAAAAAAAAAAAAAAAAAAAAAAAAAAAAAAAAAAAAAAAAAAAAAAAAAAAAAAAAAAAAAAAAAAAAAAAAAAAAAAAAAAAAAAAAAAAAAAAAAAAAAAAAAAAAAAAAAAAAAAAAAAAAAAAAAAAAAAAAAAAAAAAAAAAAAAAAAAAAAAAAAAAAAAAAAAAAAAAAAAAAAAAAAAAAAAAAAAAAAAAAAAAAAAAAAAAAAAAAAAAAAAAAAAAAAAAAAAAAAAAAAAAAAAAAAAAAAAAAAAAAAAAAAAAAAAAAAAAAAAAAAAAAAAAAAAAAAAAAAAAAAAAAAAAAAAAAAAAAAAAAAAAAAAAAAAAAAAAAAAAAAAAAAAAAAAAAAAAAAAAAAAAAAAAAAAAAAAAAAAAAAAAAAAAAAAAAAAAAAAAAAAAAAAAAAAAAAAAAAAAAAAAAAAAAAAAAAAAAAAAAAAAAAAAAAAAAAAAAAAAAAAAAAAAAAAAAAAAAAAAAAAAAAAAAAAAAAAAAAAAAAAAAAAAAAAAAAAAAAAAAAAAAAAAAAAAAAAAAAAAAAAAAAAAAAAAAAAAAAAAAAAAAAAAAAAAAAAAAAAAAAAAAAAAAAAAAAAAAAAAAAAAAAAAAAAAAAAAAAAAAAAAAAAAAAAAAAAAAAAAAAAAAAAAAAAAAAAAAAAAAAAAAAAAAAAAAAAAAAAAAAAAAAAAAAAAAAAAAAAAAAAAAAAAAAAAAAAAAAAAAAAAAAAAAAAAAAAAAAAAAAAAAAAAAAAAAAAAAAAAAAAAAAAAAAAAAAAAAAAAAAAAAAAAAAAAAAAAAAAAAAAAAAAAAAAAAAAAAAAAAAAAAAAAAAAAAAAAAAAAAAAAAAAAAAAAAAAAAAAAAAAAAAAAAAAAAAAAAAAAAAAAAAAAAAAAAAAAAAAAAAAAAAAAAAAAAAAAAAAAAAAAAAAAAAAAAAAAAAAAAAAAAAAAAAAAAAAAAAAAAAAAAAAAAAAAAAAAAAAAAAAAAAAAAAAAAAAAAAAAAAAAAAAAAAAAAAAAAAAAAAAAAAAAAAAAAAAAAAAAAAAAAAAAAAAAAAAAAAAAAAAAAAAAAAAAAAAAAAAAAAAAAAAAAAAAAAAAAAAAAAAAAAAAAAAAAAAAAAAAAAAAAAAAAAAAAAAAAAAAAAAAAAAAAAAAAAAAAAAAAAAAAAAAAAAAAAAAAAAAAAAAAAAAAAAAAAAAAAAAAAAAAAAAAAAAAAAAAAAAAAAAAAAAAAAAAAAAAAAAAAAAAAAAAAAAAAAAAAAAAAAAAAAAAAAAAAAAAAAAAAAAAAAAAAAAAAAAAAAAAAAAAAAAAAAAAAAAAAAAAAAAAAAAAAAAAAAAAAAAAAAAAAAAAAAAAAAAAAAAAAAAAAAAAAAAAAAAAAAAAAAAAAAAAAAAAAAAAAAAAAAAAAAAAAAAAAAAAAAAAAAAAAAAAAAAAAAAAAAAAAAAAAAAAAAAAAAAAAAAAAAAAAAAAAAAAAAAAAAAAAAAAAAAAAAAAAAAAAAAAAAAAAAAAAAAAAAAAAAAAAAAAAAAAAAAAAAAAAAAAAAAAAAAAAAAAAAAAAAAAAAAAAAAAAAAAAAAAAAAAAAAAAAAAAAAAAAAAAAAAAAAAAAAAAAAAAAAAAAAAAAAAAAAAAAAAAAAAAAAAAAAAAAAAAAAAAAAAAAAAAAAAAAAAAAAAAAAAAAAAAAAAAAAAAAAAAAAAAAAAAAAAAAAAAAAAAAAAAAAAAAAAAAAAAAAAAAAAAAAAAAAAAAAAAAAAAAAAAAAAAAAAAAAAAAAAAAAAAAAAAAAAAAAAAAAAAAAAAAAAAAAAAAAAAAAAAAAAAAAAAAAAAAAAAAAAAAAAAAAAAAAAAAAAAAAAAAAAAAAAAAAAAAAAAAAAAAAAAAAAAAAAAAAAAAAAAAAAAAAAAAAAAAAAAAAAAAAAAAAAAAAAAAAAAAAAAAAAAAAAAAAAAAAAAAAAAAAAAAAAAAAAAAAAAAAAAAAAAAAAAAAAAAAAAAAAAAAAAAAAAAAAAAAAAAAAAAAAAAAAAAAAAAAAAAAAAAAAAAAAAAAAAAAAAAAAAAAAAAAAAAAAAAAAAAAAAAAAAAAAAAAAAAAAAAAAAAAAAAAAAAAAAAAAAAAAAAAAAAAAAAAAAAAAAAAAAAAAAAAAAAAAAAAAAAAAAAAAAAAAAAAAAAAAAAAAAAAAAAAAAAAAAAAAAAAAAAAAAAAAAAAAAAAAAAAAAAAAAAAAAAAAAAAAAAAAAAAAAAAAAAAAAAAAAAAAAAAAAAAAAAAAAAAAAAAAAAAAAAAAAAAAAAAAAAAAAAAAAAAAAAAAAAAAAAAAAAAAAAAAAAAAAAAAAAAAAAAAAAAAAAAAAAAAAAAAAAAAAAAAAAAAAAAAAAAAAAAAAAAAAAAAAAAAAAAAAAAAAAAAAAAAAAAAAAAAAAAAAAAAAAAAAAAAAAAAAAAAAAAAAAAAAAAAAAAAAAAAAAAAAAAAAAAAAAAAAAAAAAAAAAAAAAAAAAAAAAAAAAAAAAAAAAAAAAAAAAAAAAAAAAAAAAAAAAAAAAAAAAAAAAAAAAAAAAAAAAAAAAAAAAAAAAAAAAAAAAAAAAAAAAAAAAAAAAAAAAAAAAAAAAAAAAAAAAAAAAAAAAAAAAAAAAAAAAAAAAAAAAAAAAAAAAAAAAAAAAAAAAAAAAAAAAAAAAAAAAAAAAAAAAAAAAAAAAAAAAAAAAAAAAAAAAAAAAAAAAAAAAAAAAAAAAAAAAAAAAAAAAAAAAAAAAAAAAAAAAAAAAAAAAAAAAAAAAAAAAAAAAAAAAAAAAAAAAAAAAAAAAAAAAAAAAAAAAAAAAAAAAAAAAAAAAAAAAAAAAAAAAAAAAAAAAAAAAAAAAAAAAAAAAAAAAAAAAAAAAAAAAAAAAAAAAAAAAAAAAAAAAAAAAAAAAAAAAAAAAAAAAAAAAAAAAAAAAAAAAAAAAAAAAAAAAAAAAAAAAAAAAAAAAAAAAAAAAAAAAAAAAAAAAAAAAAAAAAAAAAAAAAAPZYQFSYG6G1pJYsdyhVvYxL8qtBem4209AYC9r2x5pnmNkdPBvMuMmFAgWukj+iDIPzNlOtai7Enk08a+EFcst1poI=</c2pa:manifest></metadata>
<defs>
<linearGradient id="ibg" x1="0" y1="0" x2="0" y2="1"><stop offset="0" stop-color="#262932"/><stop offset="1" stop-color="#0C0D10"/></linearGradient>
<linearGradient id="irim" x1="0" y1="0" x2="0" y2="1"><stop offset="0" stop-color="#fff" stop-opacity="0.3"/><stop offset=".45" stop-color="#fff" stop-opacity=".03"/><stop offset="1" stop-color="#fff" stop-opacity=".08"/></linearGradient>
<clipPath id="iclip"><path d="M924.00,512.00 L923.99,584.72 L923.94,607.95 L923.87,624.84 L923.77,638.60 L923.65,650.40 L923.49,660.85 L923.31,670.30 L923.10,678.95 L922.86,686.97 L922.59,694.46 L922.29,701.51 L921.96,708.17 L921.61,714.49 L921.23,720.52 L920.81,726.28 L920.37,731.81 L919.91,737.12 L919.41,742.23 L918.88,747.17 L918.33,751.94 L917.74,756.55 L917.13,761.02 L916.48,765.36 L915.81,769.57 L915.11,773.66 L914.38,777.64 L913.62,781.52 L912.83,785.29 L912.01,788.97 L911.16,792.56 L910.28,796.07 L909.36,799.49 L908.42,802.83 L907.45,806.10 L906.45,809.29 L905.41,812.41 L904.35,815.46 L903.25,818.45 L902.12,821.38 L900.96,824.24 L899.77,827.04 L898.55,829.78 L897.29,832.47 L896.00,835.10 L894.68,837.68 L893.32,840.21 L891.94,842.68 L890.51,845.11 L889.06,847.48 L887.56,849.81 L886.04,852.09 L884.48,854.33 L882.88,856.52 L881.25,858.67 L879.58,860.77 L877.87,862.83 L876.13,864.85 L874.34,866.83 L872.53,868.77 L870.67,870.67 L868.77,872.53 L866.83,874.34 L864.85,876.13 L862.83,877.87 L860.77,879.58 L858.67,881.25 L856.52,882.88 L854.33,884.48 L852.09,886.04 L849.81,887.56 L847.48,889.06 L845.11,890.51 L842.68,891.94 L840.21,893.32 L837.68,894.68 L835.10,896.00 L832.47,897.29 L829.78,898.55 L827.04,899.77 L824.24,900.96 L821.38,902.12 L818.45,903.25 L815.46,904.35 L812.41,905.41 L809.29,906.45 L806.10,907.45 L802.83,908.42 L799.49,909.36 L796.07,910.28 L792.56,911.16 L788.97,912.01 L785.29,912.83 L781.52,913.62 L777.64,914.38 L773.66,915.11 L769.57,915.81 L765.36,916.48 L761.02,917.13 L756.55,917.74 L751.94,918.33 L747.17,918.88 L742.23,919.41 L737.12,919.91 L731.81,920.37 L726.28,920.81 L720.52,921.23 L714.49,921.61 L708.17,921.96 L701.51,922.29 L694.46,922.59 L686.97,922.86 L678.95,923.10 L670.30,923.31 L660.85,923.49 L650.40,923.65 L638.60,923.77 L624.84,923.87 L607.95,923.94 L584.72,923.99 L512.00,924.00 L439.28,923.99 L416.05,923.94 L399.16,923.87 L385.40,923.77 L373.60,923.65 L363.15,923.49 L353.70,923.31 L345.05,923.10 L337.03,922.86 L329.54,922.59 L322.49,922.29 L315.83,921.96 L309.51,921.61 L303.48,921.23 L297.72,920.81 L292.19,920.37 L286.88,919.91 L281.77,919.41 L276.83,918.88 L272.06,918.33 L267.45,917.74 L262.98,917.13 L258.64,916.48 L254.43,915.81 L250.34,915.11 L246.36,914.38 L242.48,913.62 L238.71,912.83 L235.03,912.01 L231.44,911.16 L227.93,910.28 L224.51,909.36 L221.17,908.42 L217.90,907.45 L214.71,906.45 L211.59,905.41 L208.54,904.35 L205.55,903.25 L202.62,902.12 L199.76,900.96 L196.96,899.77 L194.22,898.55 L191.53,897.29 L188.90,896.00 L186.32,894.68 L183.79,893.32 L181.32,891.94 L178.89,890.51 L176.52,889.06 L174.19,887.56 L171.91,886.04 L169.67,884.48 L167.48,882.88 L165.33,881.25 L163.23,879.58 L161.17,877.87 L159.15,876.13 L157.17,874.34 L155.23,872.53 L153.33,870.67 L151.47,868.77 L149.66,866.83 L147.87,864.85 L146.13,862.83 L144.42,860.77 L142.75,858.67 L141.12,856.52 L139.52,854.33 L137.96,852.09 L136.44,849.81 L134.94,847.48 L133.49,845.11 L132.06,842.68 L130.68,840.21 L129.32,837.68 L128.00,835.10 L126.71,832.47 L125.45,829.78 L124.23,827.04 L123.04,824.24 L121.88,821.38 L120.75,818.45 L119.65,815.46 L118.59,812.41 L117.55,809.29 L116.55,806.10 L115.58,802.83 L114.64,799.49 L113.72,796.07 L112.84,792.56 L111.99,788.97 L111.17,785.29 L110.38,781.52 L109.62,777.64 L108.89,773.66 L108.19,769.57 L107.52,765.36 L106.87,761.02 L106.26,756.55 L105.67,751.94 L105.12,747.17 L104.59,742.23 L104.09,737.12 L103.63,731.81 L103.19,726.28 L102.77,720.52 L102.39,714.49 L102.04,708.17 L101.71,701.51 L101.41,694.46 L101.14,686.97 L100.90,678.95 L100.69,670.30 L100.51,660.85 L100.35,650.40 L100.23,638.60 L100.13,624.84 L100.06,607.95 L100.01,584.72 L100.00,512.00 L100.01,439.28 L100.06,416.05 L100.13,399.16 L100.23,385.40 L100.35,373.60 L100.51,363.15 L100.69,353.70 L100.90,345.05 L101.14,337.03 L101.41,329.54 L101.71,322.49 L102.04,315.83 L102.39,309.51 L102.77,303.48 L103.19,297.72 L103.63,292.19 L104.09,286.88 L104.59,281.77 L105.12,276.83 L105.67,272.06 L106.26,267.45 L106.87,262.98 L107.52,258.64 L108.19,254.43 L108.89,250.34 L109.62,246.36 L110.38,242.48 L111.17,238.71 L111.99,235.03 L112.84,231.44 L113.72,227.93 L114.64,224.51 L115.58,221.17 L116.55,217.90 L117.55,214.71 L118.59,211.59 L119.65,208.54 L120.75,205.55 L121.88,202.62 L123.04,199.76 L124.23,196.96 L125.45,194.22 L126.71,191.53 L128.00,188.90 L129.32,186.32 L130.68,183.79 L132.06,181.32 L133.49,178.89 L134.94,176.52 L136.44,174.19 L137.96,171.91 L139.52,169.67 L141.12,167.48 L142.75,165.33 L144.42,163.23 L146.13,161.17 L147.87,159.15 L149.66,157.17 L151.47,155.23 L153.33,153.33 L155.23,151.47 L157.17,149.66 L159.15,147.87 L161.17,146.13 L163.23,144.42 L165.33,142.75 L167.48,141.12 L169.67,139.52 L171.91,137.96 L174.19,136.44 L176.52,134.94 L178.89,133.49 L181.32,132.06 L183.79,130.68 L186.32,129.32 L188.90,128.00 L191.53,126.71 L194.22,125.45 L196.96,124.23 L199.76,123.04 L202.62,121.88 L205.55,120.75 L208.54,119.65 L211.59,118.59 L214.71,117.55 L217.90,116.55 L221.17,115.58 L224.51,114.64 L227.93,113.72 L231.44,112.84 L235.03,111.99 L238.71,111.17 L242.48,110.38 L246.36,109.62 L250.34,108.89 L254.43,108.19 L258.64,107.52 L262.98,106.87 L267.45,106.26 L272.06,105.67 L276.83,105.12 L281.77,104.59 L286.88,104.09 L292.19,103.63 L297.72,103.19 L303.48,102.77 L309.51,102.39 L315.83,102.04 L322.49,101.71 L329.54,101.41 L337.03,101.14 L345.05,100.90 L353.70,100.69 L363.15,100.51 L373.60,100.35 L385.40,100.23 L399.16,100.13 L416.05,100.06 L439.28,100.01 L512.00,100.00 L584.72,100.01 L607.95,100.06 L624.84,100.13 L638.60,100.23 L650.40,100.35 L660.85,100.51 L670.30,100.69 L678.95,100.90 L686.97,101.14 L694.46,101.41 L701.51,101.71 L708.17,102.04 L714.49,102.39 L720.52,102.77 L726.28,103.19 L731.81,103.63 L737.12,104.09 L742.23,104.59 L747.17,105.12 L751.94,105.67 L756.55,106.26 L761.02,106.87 L765.36,107.52 L769.57,108.19 L773.66,108.89 L777.64,109.62 L781.52,110.38 L785.29,111.17 L788.97,111.99 L792.56,112.84 L796.07,113.72 L799.49,114.64 L802.83,115.58 L806.10,116.55 L809.29,117.55 L812.41,118.59 L815.46,119.65 L818.45,120.75 L821.38,121.88 L824.24,123.04 L827.04,124.23 L829.78,125.45 L832.47,126.71 L835.10,128.00 L837.68,129.32 L840.21,130.68 L842.68,132.06 L845.11,133.49 L847.48,134.94 L849.81,136.44 L852.09,137.96 L854.33,139.52 L856.52,141.12 L858.67,142.75 L860.77,144.42 L862.83,146.13 L864.85,147.87 L866.83,149.66 L868.77,151.47 L870.67,153.33 L872.53,155.23 L874.34,157.17 L876.13,159.15 L877.87,161.17 L879.58,163.23 L881.25,165.33 L882.88,167.48 L884.48,169.67 L886.04,171.91 L887.56,174.19 L889.06,176.52 L890.51,178.89 L891.94,181.32 L893.32,183.79 L894.68,186.32 L896.00,188.90 L897.29,191.53 L898.55,194.22 L899.77,196.96 L900.96,199.76 L902.12,202.62 L903.25,205.55 L904.35,208.54 L905.41,211.59 L906.45,214.71 L907.45,217.90 L908.42,221.17 L909.36,224.51 L910.28,227.93 L911.16,231.44 L912.01,235.03 L912.83,238.71 L913.62,242.48 L914.38,246.36 L915.11,250.34 L915.81,254.43 L916.48,258.64 L917.13,262.98 L917.74,267.45 L918.33,272.06 L918.88,276.83 L919.41,281.77 L919.91,286.88 L920.37,292.19 L920.81,297.72 L921.23,303.48 L921.61,309.51 L921.96,315.83 L922.29,322.49 L922.59,329.54 L922.86,337.03 L923.10,345.05 L923.31,353.70 L923.49,363.15 L923.65,373.60 L923.77,385.40 L923.87,399.16 L923.94,416.05 L923.99,439.28 Z"/></clipPath>
<filter id="idrop" x="-20%" y="-20%" width="140%" height="150%"><feDropShadow dx="0" dy="16" stdDeviation="22" flood-color="#000" flood-opacity=".5"/></filter>
<filter id="iblur10" x="-60%" y="-60%" width="220%" height="220%"><feGaussianBlur stdDeviation="10"/></filter>
<filter id="iblur30" x="-120%" y="-120%" width="340%" height="340%"><feGaussianBlur stdDeviation="30"/></filter>
<filter id="iblur50" x="-150%" y="-150%" width="400%" height="400%"><feGaussianBlur stdDeviation="50"/></filter>
<filter id="ish" filterUnits="userSpaceOnUse" x="-100" y="-100" width="1224" height="1224"><feDropShadow dx="0" dy="0" stdDeviation="8" flood-color="#000" flood-opacity=".7"/></filter>
<linearGradient id="ih-6" gradientUnits="userSpaceOnUse" x1="0" y1="-69.0" x2="0" y2="-11.0"><stop offset="0" stop-color="#363943"/><stop offset=".42" stop-color="#24272E"/><stop offset="1" stop-color="#121418"/></linearGradient>
<linearGradient id="ih-5" gradientUnits="userSpaceOnUse" x1="0" y1="23.0" x2="0" y2="81.0"><stop offset="0" stop-color="#363943"/><stop offset=".42" stop-color="#24272E"/><stop offset="1" stop-color="#121418"/></linearGradient>
<linearGradient id="ih-4" gradientUnits="userSpaceOnUse" x1="0" y1="115.0" x2="0" y2="173.0"><stop offset="0" stop-color="#363943"/><stop offset=".42" stop-color="#24272E"/><stop offset="1" stop-color="#121418"/></linearGradient>
<linearGradient id="ih-3" gradientUnits="userSpaceOnUse" x1="0" y1="207.0" x2="0" y2="265.0"><stop offset="0" stop-color="#363943"/><stop offset=".42" stop-color="#24272E"/><stop offset="1" stop-color="#121418"/></linearGradient>
<linearGradient id="ih-2" gradientUnits="userSpaceOnUse" x1="0" y1="299.0" x2="0" y2="357.0"><stop offset="0" stop-color="#363943"/><stop offset=".42" stop-color="#24272E"/><stop offset="1" stop-color="#121418"/></linearGradient>
<linearGradient id="ih-1" gradientUnits="userSpaceOnUse" x1="0" y1="391.0" x2="0" y2="449.0"><stop offset="0" stop-color="#363943"/><stop offset=".42" stop-color="#24272E"/><stop offset="1" stop-color="#121418"/></linearGradient>
<linearGradient id="ih0" gradientUnits="userSpaceOnUse" x1="0" y1="483.0" x2="0" y2="541.0"><stop offset="0" stop-color="#363943"/><stop offset=".42" stop-color="#24272E"/><stop offset="1" stop-color="#121418"/></linearGradient>
<linearGradient id="ih1" gradientUnits="userSpaceOnUse" x1="0" y1="575.0" x2="0" y2="633.0"><stop offset="0" stop-color="#363943"/><stop offset=".42" stop-color="#24272E"/><stop offset="1" stop-color="#121418"/></linearGradient>
<linearGradient id="ih2" gradientUnits="userSpaceOnUse" x1="0" y1="667.0" x2="0" y2="725.0"><stop offset="0" stop-color="#363943"/><stop offset=".42" stop-color="#24272E"/><stop offset="1" stop-color="#121418"/></linearGradient>
<linearGradient id="ih3" gradientUnits="userSpaceOnUse" x1="0" y1="759.0" x2="0" y2="817.0"><stop offset="0" stop-color="#363943"/><stop offset=".42" stop-color="#24272E"/><stop offset="1" stop-color="#121418"/></linearGradient>
<linearGradient id="ih4" gradientUnits="userSpaceOnUse" x1="0" y1="851.0" x2="0" y2="909.0"><stop offset="0" stop-color="#363943"/><stop offset=".42" stop-color="#24272E"/><stop offset="1" stop-color="#121418"/></linearGradient>
<linearGradient id="ih5" gradientUnits="userSpaceOnUse" x1="0" y1="943.0" x2="0" y2="1001.0"><stop offset="0" stop-color="#363943"/><stop offset=".42" stop-color="#24272E"/><stop offset="1" stop-color="#121418"/></linearGradient>
<linearGradient id="ih6" gradientUnits="userSpaceOnUse" x1="0" y1="1035.0" x2="0" y2="1093.0"><stop offset="0" stop-color="#363943"/><stop offset=".42" stop-color="#24272E"/><stop offset="1" stop-color="#121418"/></linearGradient>
<linearGradient id="iv-6" gradientUnits="userSpaceOnUse" x1="-69.0" y1="0" x2="-11.0" y2="0"><stop offset="0" stop-color="#363943"/><stop offset=".42" stop-color="#24272E"/><stop offset="1" stop-color="#121418"/></linearGradient>
<linearGradient id="iv-5" gradientUnits="userSpaceOnUse" x1="23.0" y1="0" x2="81.0" y2="0"><stop offset="0" stop-color="#363943"/><stop offset=".42" stop-color="#24272E"/><stop offset="1" stop-color="#121418"/></linearGradient>
<linearGradient id="iv-4" gradientUnits="userSpaceOnUse" x1="115.0" y1="0" x2="173.0" y2="0"><stop offset="0" stop-color="#363943"/><stop offset=".42" stop-color="#24272E"/><stop offset="1" stop-color="#121418"/></linearGradient>
<linearGradient id="iv-3" gradientUnits="userSpaceOnUse" x1="207.0" y1="0" x2="265.0" y2="0"><stop offset="0" stop-color="#363943"/><stop offset=".42" stop-color="#24272E"/><stop offset="1" stop-color="#121418"/></linearGradient>
<linearGradient id="iv-2" gradientUnits="userSpaceOnUse" x1="299.0" y1="0" x2="357.0" y2="0"><stop offset="0" stop-color="#363943"/><stop offset=".42" stop-color="#24272E"/><stop offset="1" stop-color="#121418"/></linearGradient>
<linearGradient id="iv-1" gradientUnits="userSpaceOnUse" x1="391.0" y1="0" x2="449.0" y2="0"><stop offset="0" stop-color="#363943"/><stop offset=".42" stop-color="#24272E"/><stop offset="1" stop-color="#121418"/></linearGradient>
<linearGradient id="iv0" gradientUnits="userSpaceOnUse" x1="483.0" y1="0" x2="541.0" y2="0"><stop offset="0" stop-color="#363943"/><stop offset=".42" stop-color="#24272E"/><stop offset="1" stop-color="#121418"/></linearGradient>
<linearGradient id="iv1" gradientUnits="userSpaceOnUse" x1="575.0" y1="0" x2="633.0" y2="0"><stop offset="0" stop-color="#363943"/><stop offset=".42" stop-color="#24272E"/><stop offset="1" stop-color="#121418"/></linearGradient>
<linearGradient id="iv2" gradientUnits="userSpaceOnUse" x1="667.0" y1="0" x2="725.0" y2="0"><stop offset="0" stop-color="#363943"/><stop offset=".42" stop-color="#24272E"/><stop offset="1" stop-color="#121418"/></linearGradient>
<linearGradient id="iv3" gradientUnits="userSpaceOnUse" x1="759.0" y1="0" x2="817.0" y2="0"><stop offset="0" stop-color="#363943"/><stop offset=".42" stop-color="#24272E"/><stop offset="1" stop-color="#121418"/></linearGradient>
<linearGradient id="iv4" gradientUnits="userSpaceOnUse" x1="851.0" y1="0" x2="909.0" y2="0"><stop offset="0" stop-color="#363943"/><stop offset=".42" stop-color="#24272E"/><stop offset="1" stop-color="#121418"/></linearGradient>
<linearGradient id="iv5" gradientUnits="userSpaceOnUse" x1="943.0" y1="0" x2="1001.0" y2="0"><stop offset="0" stop-color="#363943"/><stop offset=".42" stop-color="#24272E"/><stop offset="1" stop-color="#121418"/></linearGradient>
<linearGradient id="iv6" gradientUnits="userSpaceOnUse" x1="1035.0" y1="0" x2="1093.0" y2="0"><stop offset="0" stop-color="#363943"/><stop offset=".42" stop-color="#24272E"/><stop offset="1" stop-color="#121418"/></linearGradient>
<linearGradient id="ie" gradientUnits="userSpaceOnUse" x1="454.0" y1="0" x2="570.0" y2="0"><stop offset="0" stop-color="#FFC9A0"/><stop offset=".4" stop-color="#FF8A4C"/><stop offset="1" stop-color="#DE5A24"/></linearGradient>
<radialGradient id="ivig" cx="512" cy="512" r="640" gradientUnits="userSpaceOnUse"><stop offset=".22" stop-color="#000" stop-opacity="0"/><stop offset="1" stop-color="#000" stop-opacity=".78"/></radialGradient>
<linearGradient id="it" x1="0" y1="0" x2="0" y2="1"><stop offset="0" stop-color="#FFD0AA"/><stop offset=".35" stop-color="#FF9A5C"/><stop offset="1" stop-color="#E5602B"/></linearGradient>
</defs>
<path d="M924.00,512.00 L923.99,584.72 L923.94,607.95 L923.87,624.84 L923.77,638.60 L923.65,650.40 L923.49,660.85 L923.31,670.30 L923.10,678.95 L922.86,686.97 L922.59,694.46 L922.29,701.51 L921.96,708.17 L921.61,714.49 L921.23,720.52 L920.81,726.28 L920.37,731.81 L919.91,737.12 L919.41,742.23 L918.88,747.17 L918.33,751.94 L917.74,756.55 L917.13,761.02 L916.48,765.36 L915.81,769.57 L915.11,773.66 L914.38,777.64 L913.62,781.52 L912.83,785.29 L912.01,788.97 L911.16,792.56 L910.28,796.07 L909.36,799.49 L908.42,802.83 L907.45,806.10 L906.45,809.29 L905.41,812.41 L904.35,815.46 L903.25,818.45 L902.12,821.38 L900.96,824.24 L899.77,827.04 L898.55,829.78 L897.29,832.47 L896.00,835.10 L894.68,837.68 L893.32,840.21 L891.94,842.68 L890.51,845.11 L889.06,847.48 L887.56,849.81 L886.04,852.09 L884.48,854.33 L882.88,856.52 L881.25,858.67 L879.58,860.77 L877.87,862.83 L876.13,864.85 L874.34,866.83 L872.53,868.77 L870.67,870.67 L868.77,872.53 L866.83,874.34 L864.85,876.13 L862.83,877.87 L860.77,879.58 L858.67,881.25 L856.52,882.88 L854.33,884.48 L852.09,886.04 L849.81,887.56 L847.48,889.06 L845.11,890.51 L842.68,891.94 L840.21,893.32 L837.68,894.68 L835.10,896.00 L832.47,897.29 L829.78,898.55 L827.04,899.77 L824.24,900.96 L821.38,902.12 L818.45,903.25 L815.46,904.35 L812.41,905.41 L809.29,906.45 L806.10,907.45 L802.83,908.42 L799.49,909.36 L796.07,910.28 L792.56,911.16 L788.97,912.01 L785.29,912.83 L781.52,913.62 L777.64,914.38 L773.66,915.11 L769.57,915.81 L765.36,916.48 L761.02,917.13 L756.55,917.74 L751.94,918.33 L747.17,918.88 L742.23,919.41 L737.12,919.91 L731.81,920.37 L726.28,920.81 L720.52,921.23 L714.49,921.61 L708.17,921.96 L701.51,922.29 L694.46,922.59 L686.97,922.86 L678.95,923.10 L670.30,923.31 L660.85,923.49 L650.40,923.65 L638.60,923.77 L624.84,923.87 L607.95,923.94 L584.72,923.99 L512.00,924.00 L439.28,923.99 L416.05,923.94 L399.16,923.87 L385.40,923.77 L373.60,923.65 L363.15,923.49 L353.70,923.31 L345.05,923.10 L337.03,922.86 L329.54,922.59 L322.49,922.29 L315.83,921.96 L309.51,921.61 L303.48,921.23 L297.72,920.81 L292.19,920.37 L286.88,919.91 L281.77,919.41 L276.83,918.88 L272.06,918.33 L267.45,917.74 L262.98,917.13 L258.64,916.48 L254.43,915.81 L250.34,915.11 L246.36,914.38 L242.48,913.62 L238.71,912.83 L235.03,912.01 L231.44,911.16 L227.93,910.28 L224.51,909.36 L221.17,908.42 L217.90,907.45 L214.71,906.45 L211.59,905.41 L208.54,904.35 L205.55,903.25 L202.62,902.12 L199.76,900.96 L196.96,899.77 L194.22,898.55 L191.53,897.29 L188.90,896.00 L186.32,894.68 L183.79,893.32 L181.32,891.94 L178.89,890.51 L176.52,889.06 L174.19,887.56 L171.91,886.04 L169.67,884.48 L167.48,882.88 L165.33,881.25 L163.23,879.58 L161.17,877.87 L159.15,876.13 L157.17,874.34 L155.23,872.53 L153.33,870.67 L151.47,868.77 L149.66,866.83 L147.87,864.85 L146.13,862.83 L144.42,860.77 L142.75,858.67 L141.12,856.52 L139.52,854.33 L137.96,852.09 L136.44,849.81 L134.94,847.48 L133.49,845.11 L132.06,842.68 L130.68,840.21 L129.32,837.68 L128.00,835.10 L126.71,832.47 L125.45,829.78 L124.23,827.04 L123.04,824.24 L121.88,821.38 L120.75,818.45 L119.65,815.46 L118.59,812.41 L117.55,809.29 L116.55,806.10 L115.58,802.83 L114.64,799.49 L113.72,796.07 L112.84,792.56 L111.99,788.97 L111.17,785.29 L110.38,781.52 L109.62,777.64 L108.89,773.66 L108.19,769.57 L107.52,765.36 L106.87,761.02 L106.26,756.55 L105.67,751.94 L105.12,747.17 L104.59,742.23 L104.09,737.12 L103.63,731.81 L103.19,726.28 L102.77,720.52 L102.39,714.49 L102.04,708.17 L101.71,701.51 L101.41,694.46 L101.14,686.97 L100.90,678.95 L100.69,670.30 L100.51,660.85 L100.35,650.40 L100.23,638.60 L100.13,624.84 L100.06,607.95 L100.01,584.72 L100.00,512.00 L100.01,439.28 L100.06,416.05 L100.13,399.16 L100.23,385.40 L100.35,373.60 L100.51,363.15 L100.69,353.70 L100.90,345.05 L101.14,337.03 L101.41,329.54 L101.71,322.49 L102.04,315.83 L102.39,309.51 L102.77,303.48 L103.19,297.72 L103.63,292.19 L104.09,286.88 L104.59,281.77 L105.12,276.83 L105.67,272.06 L106.26,267.45 L106.87,262.98 L107.52,258.64 L108.19,254.43 L108.89,250.34 L109.62,246.36 L110.38,242.48 L111.17,238.71 L111.99,235.03 L112.84,231.44 L113.72,227.93 L114.64,224.51 L115.58,221.17 L116.55,217.90 L117.55,214.71 L118.59,211.59 L119.65,208.54 L120.75,205.55 L121.88,202.62 L123.04,199.76 L124.23,196.96 L125.45,194.22 L126.71,191.53 L128.00,188.90 L129.32,186.32 L130.68,183.79 L132.06,181.32 L133.49,178.89 L134.94,176.52 L136.44,174.19 L137.96,171.91 L139.52,169.67 L141.12,167.48 L142.75,165.33 L144.42,163.23 L146.13,161.17 L147.87,159.15 L149.66,157.17 L151.47,155.23 L153.33,153.33 L155.23,151.47 L157.17,149.66 L159.15,147.87 L161.17,146.13 L163.23,144.42 L165.33,142.75 L167.48,141.12 L169.67,139.52 L171.91,137.96 L174.19,136.44 L176.52,134.94 L178.89,133.49 L181.32,132.06 L183.79,130.68 L186.32,129.32 L188.90,128.00 L191.53,126.71 L194.22,125.45 L196.96,124.23 L199.76,123.04 L202.62,121.88 L205.55,120.75 L208.54,119.65 L211.59,118.59 L214.71,117.55 L217.90,116.55 L221.17,115.58 L224.51,114.64 L227.93,113.72 L231.44,112.84 L235.03,111.99 L238.71,111.17 L242.48,110.38 L246.36,109.62 L250.34,108.89 L254.43,108.19 L258.64,107.52 L262.98,106.87 L267.45,106.26 L272.06,105.67 L276.83,105.12 L281.77,104.59 L286.88,104.09 L292.19,103.63 L297.72,103.19 L303.48,102.77 L309.51,102.39 L315.83,102.04 L322.49,101.71 L329.54,101.41 L337.03,101.14 L345.05,100.90 L353.70,100.69 L363.15,100.51 L373.60,100.35 L385.40,100.23 L399.16,100.13 L416.05,100.06 L439.28,100.01 L512.00,100.00 L584.72,100.01 L607.95,100.06 L624.84,100.13 L638.60,100.23 L650.40,100.35 L660.85,100.51 L670.30,100.69 L678.95,100.90 L686.97,101.14 L694.46,101.41 L701.51,101.71 L708.17,102.04 L714.49,102.39 L720.52,102.77 L726.28,103.19 L731.81,103.63 L737.12,104.09 L742.23,104.59 L747.17,105.12 L751.94,105.67 L756.55,106.26 L761.02,106.87 L765.36,107.52 L769.57,108.19 L773.66,108.89 L777.64,109.62 L781.52,110.38 L785.29,111.17 L788.97,111.99 L792.56,112.84 L796.07,113.72 L799.49,114.64 L802.83,115.58 L806.10,116.55 L809.29,117.55 L812.41,118.59 L815.46,119.65 L818.45,120.75 L821.38,121.88 L824.24,123.04 L827.04,124.23 L829.78,125.45 L832.47,126.71 L835.10,128.00 L837.68,129.32 L840.21,130.68 L842.68,132.06 L845.11,133.49 L847.48,134.94 L849.81,136.44 L852.09,137.96 L854.33,139.52 L856.52,141.12 L858.67,142.75 L860.77,144.42 L862.83,146.13 L864.85,147.87 L866.83,149.66 L868.77,151.47 L870.67,153.33 L872.53,155.23 L874.34,157.17 L876.13,159.15 L877.87,161.17 L879.58,163.23 L881.25,165.33 L882.88,167.48 L884.48,169.67 L886.04,171.91 L887.56,174.19 L889.06,176.52 L890.51,178.89 L891.94,181.32 L893.32,183.79 L894.68,186.32 L896.00,188.90 L897.29,191.53 L898.55,194.22 L899.77,196.96 L900.96,199.76 L902.12,202.62 L903.25,205.55 L904.35,208.54 L905.41,211.59 L906.45,214.71 L907.45,217.90 L908.42,221.17 L909.36,224.51 L910.28,227.93 L911.16,231.44 L912.01,235.03 L912.83,238.71 L913.62,242.48 L914.38,246.36 L915.11,250.34 L915.81,254.43 L916.48,258.64 L917.13,262.98 L917.74,267.45 L918.33,272.06 L918.88,276.83 L919.41,281.77 L919.91,286.88 L920.37,292.19 L920.81,297.72 L921.23,303.48 L921.61,309.51 L921.96,315.83 L922.29,322.49 L922.59,329.54 L922.86,337.03 L923.10,345.05 L923.31,353.70 L923.49,363.15 L923.65,373.60 L923.77,385.40 L923.87,399.16 L923.94,416.05 L923.99,439.28 Z" fill="#000" filter="url(#idrop)"/>
<path d="M924.00,512.00 L923.99,584.72 L923.94,607.95 L923.87,624.84 L923.77,638.60 L923.65,650.40 L923.49,660.85 L923.31,670.30 L923.10,678.95 L922.86,686.97 L922.59,694.46 L922.29,701.51 L921.96,708.17 L921.61,714.49 L921.23,720.52 L920.81,726.28 L920.37,731.81 L919.91,737.12 L919.41,742.23 L918.88,747.17 L918.33,751.94 L917.74,756.55 L917.13,761.02 L916.48,765.36 L915.81,769.57 L915.11,773.66 L914.38,777.64 L913.62,781.52 L912.83,785.29 L912.01,788.97 L911.16,792.56 L910.28,796.07 L909.36,799.49 L908.42,802.83 L907.45,806.10 L906.45,809.29 L905.41,812.41 L904.35,815.46 L903.25,818.45 L902.12,821.38 L900.96,824.24 L899.77,827.04 L898.55,829.78 L897.29,832.47 L896.00,835.10 L894.68,837.68 L893.32,840.21 L891.94,842.68 L890.51,845.11 L889.06,847.48 L887.56,849.81 L886.04,852.09 L884.48,854.33 L882.88,856.52 L881.25,858.67 L879.58,860.77 L877.87,862.83 L876.13,864.85 L874.34,866.83 L872.53,868.77 L870.67,870.67 L868.77,872.53 L866.83,874.34 L864.85,876.13 L862.83,877.87 L860.77,879.58 L858.67,881.25 L856.52,882.88 L854.33,884.48 L852.09,886.04 L849.81,887.56 L847.48,889.06 L845.11,890.51 L842.68,891.94 L840.21,893.32 L837.68,894.68 L835.10,896.00 L832.47,897.29 L829.78,898.55 L827.04,899.77 L824.24,900.96 L821.38,902.12 L818.45,903.25 L815.46,904.35 L812.41,905.41 L809.29,906.45 L806.10,907.45 L802.83,908.42 L799.49,909.36 L796.07,910.28 L792.56,911.16 L788.97,912.01 L785.29,912.83 L781.52,913.62 L777.64,914.38 L773.66,915.11 L769.57,915.81 L765.36,916.48 L761.02,917.13 L756.55,917.74 L751.94,918.33 L747.17,918.88 L742.23,919.41 L737.12,919.91 L731.81,920.37 L726.28,920.81 L720.52,921.23 L714.49,921.61 L708.17,921.96 L701.51,922.29 L694.46,922.59 L686.97,922.86 L678.95,923.10 L670.30,923.31 L660.85,923.49 L650.40,923.65 L638.60,923.77 L624.84,923.87 L607.95,923.94 L584.72,923.99 L512.00,924.00 L439.28,923.99 L416.05,923.94 L399.16,923.87 L385.40,923.77 L373.60,923.65 L363.15,923.49 L353.70,923.31 L345.05,923.10 L337.03,922.86 L329.54,922.59 L322.49,922.29 L315.83,921.96 L309.51,921.61 L303.48,921.23 L297.72,920.81 L292.19,920.37 L286.88,919.91 L281.77,919.41 L276.83,918.88 L272.06,918.33 L267.45,917.74 L262.98,917.13 L258.64,916.48 L254.43,915.81 L250.34,915.11 L246.36,914.38 L242.48,913.62 L238.71,912.83 L235.03,912.01 L231.44,911.16 L227.93,910.28 L224.51,909.36 L221.17,908.42 L217.90,907.45 L214.71,906.45 L211.59,905.41 L208.54,904.35 L205.55,903.25 L202.62,902.12 L199.76,900.96 L196.96,899.77 L194.22,898.55 L191.53,897.29 L188.90,896.00 L186.32,894.68 L183.79,893.32 L181.32,891.94 L178.89,890.51 L176.52,889.06 L174.19,887.56 L171.91,886.04 L169.67,884.48 L167.48,882.88 L165.33,881.25 L163.23,879.58 L161.17,877.87 L159.15,876.13 L157.17,874.34 L155.23,872.53 L153.33,870.67 L151.47,868.77 L149.66,866.83 L147.87,864.85 L146.13,862.83 L144.42,860.77 L142.75,858.67 L141.12,856.52 L139.52,854.33 L137.96,852.09 L136.44,849.81 L134.94,847.48 L133.49,845.11 L132.06,842.68 L130.68,840.21 L129.32,837.68 L128.00,835.10 L126.71,832.47 L125.45,829.78 L124.23,827.04 L123.04,824.24 L121.88,821.38 L120.75,818.45 L119.65,815.46 L118.59,812.41 L117.55,809.29 L116.55,806.10 L115.58,802.83 L114.64,799.49 L113.72,796.07 L112.84,792.56 L111.99,788.97 L111.17,785.29 L110.38,781.52 L109.62,777.64 L108.89,773.66 L108.19,769.57 L107.52,765.36 L106.87,761.02 L106.26,756.55 L105.67,751.94 L105.12,747.17 L104.59,742.23 L104.09,737.12 L103.63,731.81 L103.19,726.28 L102.77,720.52 L102.39,714.49 L102.04,708.17 L101.71,701.51 L101.41,694.46 L101.14,686.97 L100.90,678.95 L100.69,670.30 L100.51,660.85 L100.35,650.40 L100.23,638.60 L100.13,624.84 L100.06,607.95 L100.01,584.72 L100.00,512.00 L100.01,439.28 L100.06,416.05 L100.13,399.16 L100.23,385.40 L100.35,373.60 L100.51,363.15 L100.69,353.70 L100.90,345.05 L101.14,337.03 L101.41,329.54 L101.71,322.49 L102.04,315.83 L102.39,309.51 L102.77,303.48 L103.19,297.72 L103.63,292.19 L104.09,286.88 L104.59,281.77 L105.12,276.83 L105.67,272.06 L106.26,267.45 L106.87,262.98 L107.52,258.64 L108.19,254.43 L108.89,250.34 L109.62,246.36 L110.38,242.48 L111.17,238.71 L111.99,235.03 L112.84,231.44 L113.72,227.93 L114.64,224.51 L115.58,221.17 L116.55,217.90 L117.55,214.71 L118.59,211.59 L119.65,208.54 L120.75,205.55 L121.88,202.62 L123.04,199.76 L124.23,196.96 L125.45,194.22 L126.71,191.53 L128.00,188.90 L129.32,186.32 L130.68,183.79 L132.06,181.32 L133.49,178.89 L134.94,176.52 L136.44,174.19 L137.96,171.91 L139.52,169.67 L141.12,167.48 L142.75,165.33 L144.42,163.23 L146.13,161.17 L147.87,159.15 L149.66,157.17 L151.47,155.23 L153.33,153.33 L155.23,151.47 L157.17,149.66 L159.15,147.87 L161.17,146.13 L163.23,144.42 L165.33,142.75 L167.48,141.12 L169.67,139.52 L171.91,137.96 L174.19,136.44 L176.52,134.94 L178.89,133.49 L181.32,132.06 L183.79,130.68 L186.32,129.32 L188.90,128.00 L191.53,126.71 L194.22,125.45 L196.96,124.23 L199.76,123.04 L202.62,121.88 L205.55,120.75 L208.54,119.65 L211.59,118.59 L214.71,117.55 L217.90,116.55 L221.17,115.58 L224.51,114.64 L227.93,113.72 L231.44,112.84 L235.03,111.99 L238.71,111.17 L242.48,110.38 L246.36,109.62 L250.34,108.89 L254.43,108.19 L258.64,107.52 L262.98,106.87 L267.45,106.26 L272.06,105.67 L276.83,105.12 L281.77,104.59 L286.88,104.09 L292.19,103.63 L297.72,103.19 L303.48,102.77 L309.51,102.39 L315.83,102.04 L322.49,101.71 L329.54,101.41 L337.03,101.14 L345.05,100.90 L353.70,100.69 L363.15,100.51 L373.60,100.35 L385.40,100.23 L399.16,100.13 L416.05,100.06 L439.28,100.01 L512.00,100.00 L584.72,100.01 L607.95,100.06 L624.84,100.13 L638.60,100.23 L650.40,100.35 L660.85,100.51 L670.30,100.69 L678.95,100.90 L686.97,101.14 L694.46,101.41 L701.51,101.71 L708.17,102.04 L714.49,102.39 L720.52,102.77 L726.28,103.19 L731.81,103.63 L737.12,104.09 L742.23,104.59 L747.17,105.12 L751.94,105.67 L756.55,106.26 L761.02,106.87 L765.36,107.52 L769.57,108.19 L773.66,108.89 L777.64,109.62 L781.52,110.38 L785.29,111.17 L788.97,111.99 L792.56,112.84 L796.07,113.72 L799.49,114.64 L802.83,115.58 L806.10,116.55 L809.29,117.55 L812.41,118.59 L815.46,119.65 L818.45,120.75 L821.38,121.88 L824.24,123.04 L827.04,124.23 L829.78,125.45 L832.47,126.71 L835.10,128.00 L837.68,129.32 L840.21,130.68 L842.68,132.06 L845.11,133.49 L847.48,134.94 L849.81,136.44 L852.09,137.96 L854.33,139.52 L856.52,141.12 L858.67,142.75 L860.77,144.42 L862.83,146.13 L864.85,147.87 L866.83,149.66 L868.77,151.47 L870.67,153.33 L872.53,155.23 L874.34,157.17 L876.13,159.15 L877.87,161.17 L879.58,163.23 L881.25,165.33 L882.88,167.48 L884.48,169.67 L886.04,171.91 L887.56,174.19 L889.06,176.52 L890.51,178.89 L891.94,181.32 L893.32,183.79 L894.68,186.32 L896.00,188.90 L897.29,191.53 L898.55,194.22 L899.77,196.96 L900.96,199.76 L902.12,202.62 L903.25,205.55 L904.35,208.54 L905.41,211.59 L906.45,214.71 L907.45,217.90 L908.42,221.17 L909.36,224.51 L910.28,227.93 L911.16,231.44 L912.01,235.03 L912.83,238.71 L913.62,242.48 L914.38,246.36 L915.11,250.34 L915.81,254.43 L916.48,258.64 L917.13,262.98 L917.74,267.45 L918.33,272.06 L918.88,276.83 L919.41,281.77 L919.91,286.88 L920.37,292.19 L920.81,297.72 L921.23,303.48 L921.61,309.51 L921.96,315.83 L922.29,322.49 L922.59,329.54 L922.86,337.03 L923.10,345.05 L923.31,353.70 L923.49,363.15 L923.65,373.60 L923.77,385.40 L923.87,399.16 L923.94,416.05 L923.99,439.28 Z" fill="url(#ibg)"/>
<g clip-path="url(#iclip)">
<rect x="-60" y="-69.0" width="1144" height="58" fill="url(#ih-6)"/>
<rect x="-60" y="23.0" width="1144" height="58" fill="url(#ih-5)"/>
<rect x="-60" y="115.0" width="1144" height="58" fill="url(#ih-4)"/>
<rect x="-60" y="207.0" width="1144" height="58" fill="url(#ih-3)"/>
<rect x="-60" y="299.0" width="1144" height="58" fill="url(#ih-2)"/>
<rect x="-60" y="391.0" width="1144" height="58" fill="url(#ih-1)"/>
<rect x="-60" y="483.0" width="1144" height="58" fill="url(#ih0)"/>
<rect x="-60" y="575.0" width="1144" height="58" fill="url(#ih1)"/>
<rect x="-60" y="667.0" width="1144" height="58" fill="url(#ih2)"/>
<rect x="-60" y="759.0" width="1144" height="58" fill="url(#ih3)"/>
<rect x="-60" y="851.0" width="1144" height="58" fill="url(#ih4)"/>
<rect x="-60" y="943.0" width="1144" height="58" fill="url(#ih5)"/>
<rect x="-60" y="1035.0" width="1144" height="58" fill="url(#ih6)"/>
<rect x="-69.0" y="-60" width="58" height="1144" fill="#000" opacity=".55" filter="url(#iblur10)"/>
<rect x="23.0" y="-60" width="58" height="1144" fill="#000" opacity=".55" filter="url(#iblur10)"/>
<rect x="115.0" y="-60" width="58" height="1144" fill="#000" opacity=".55" filter="url(#iblur10)"/>
<rect x="207.0" y="-60" width="58" height="1144" fill="#000" opacity=".55" filter="url(#iblur10)"/>
<rect x="299.0" y="-60" width="58" height="1144" fill="#000" opacity=".55" filter="url(#iblur10)"/>
<rect x="391.0" y="-60" width="58" height="1144" fill="#000" opacity=".55" filter="url(#iblur10)"/>
<rect x="483.0" y="-60" width="58" height="1144" fill="#000" opacity=".55" filter="url(#iblur10)"/>
<rect x="575.0" y="-60" width="58" height="1144" fill="#000" opacity=".55" filter="url(#iblur10)"/>
<rect x="667.0" y="-60" width="58" height="1144" fill="#000" opacity=".55" filter="url(#iblur10)"/>
<rect x="759.0" y="-60" width="58" height="1144" fill="#000" opacity=".55" filter="url(#iblur10)"/>
<rect x="851.0" y="-60" width="58" height="1144" fill="#000" opacity=".55" filter="url(#iblur10)"/>
<rect x="943.0" y="-60" width="58" height="1144" fill="#000" opacity=".55" filter="url(#iblur10)"/>
<rect x="1035.0" y="-60" width="58" height="1144" fill="#000" opacity=".55" filter="url(#iblur10)"/>
<rect x="-69.0" y="-60" width="58" height="1144" fill="url(#iv-6)"/>
<rect x="23.0" y="-60" width="58" height="1144" fill="url(#iv-5)"/>
<rect x="115.0" y="-60" width="58" height="1144" fill="url(#iv-4)"/>
<rect x="207.0" y="-60" width="58" height="1144" fill="url(#iv-3)"/>
<rect x="299.0" y="-60" width="58" height="1144" fill="url(#iv-2)"/>
<rect x="391.0" y="-60" width="58" height="1144" fill="url(#iv-1)"/>
<rect x="483.0" y="-60" width="58" height="1144" fill="url(#iv0)"/>
<rect x="575.0" y="-60" width="58" height="1144" fill="url(#iv1)"/>
<rect x="667.0" y="-60" width="58" height="1144" fill="url(#iv2)"/>
<rect x="759.0" y="-60" width="58" height="1144" fill="url(#iv3)"/>
<rect x="851.0" y="-60" width="58" height="1144" fill="url(#iv4)"/>
<rect x="943.0" y="-60" width="58" height="1144" fill="url(#iv5)"/>
<rect x="1035.0" y="-60" width="58" height="1144" fill="url(#iv6)"/>
<g filter="url(#ish)"><rect x="22.5" y="-69.0" width="59" height="58" fill="url(#ih-6)"/><rect x="206.5" y="-69.0" width="59" height="58" fill="url(#ih-6)"/><rect x="390.5" y="-69.0" width="59" height="58" fill="url(#ih-6)"/><rect x="574.5" y="-69.0" width="59" height="58" fill="url(#ih-6)"/><rect x="758.5" y="-69.0" width="59" height="58" fill="url(#ih-6)"/><rect x="942.5" y="-69.0" width="59" height="58" fill="url(#ih-6)"/><rect x="-69.5" y="23.0" width="59" height="58" fill="url(#ih-5)"/><rect x="114.5" y="23.0" width="59" height="58" fill="url(#ih-5)"/><rect x="298.5" y="23.0" width="59" height="58" fill="url(#ih-5)"/><rect x="482.5" y="23.0" width="59" height="58" fill="url(#ih-5)"/><rect x="666.5" y="23.0" width="59" height="58" fill="url(#ih-5)"/><rect x="850.5" y="23.0" width="59" height="58" fill="url(#ih-5)"/><rect x="1034.5" y="23.0" width="59" height="58" fill="url(#ih-5)"/><rect x="22.5" y="115.0" width="59" height="58" fill="url(#ih-4)"/><rect x="206.5" y="115.0" width="59" height="58" fill="url(#ih-4)"/><rect x="390.5" y="115.0" width="59" height="58" fill="url(#ih-4)"/><rect x="574.5" y="115.0" width="59" height="58" fill="url(#ih-4)"/><rect x="758.5" y="115.0" width="59" height="58" fill="url(#ih-4)"/><rect x="942.5" y="115.0" width="59" height="58" fill="url(#ih-4)"/><rect x="-69.5" y="207.0" width="59" height="58" fill="url(#ih-3)"/><rect x="114.5" y="207.0" width="59" height="58" fill="url(#ih-3)"/><rect x="298.5" y="207.0" width="59" height="58" fill="url(#ih-3)"/><rect x="482.5" y="207.0" width="59" height="58" fill="url(#ih-3)"/><rect x="666.5" y="207.0" width="59" height="58" fill="url(#ih-3)"/><rect x="850.5" y="207.0" width="59" height="58" fill="url(#ih-3)"/><rect x="1034.5" y="207.0" width="59" height="58" fill="url(#ih-3)"/><rect x="22.5" y="299.0" width="59" height="58" fill="url(#ih-2)"/><rect x="206.5" y="299.0" width="59" height="58" fill="url(#ih-2)"/><rect x="390.5" y="299.0" width="59" height="58" fill="url(#ih-2)"/><rect x="574.5" y="299.0" width="59" height="58" fill="url(#ih-2)"/><rect x="758.5" y="299.0" width="59" height="58" fill="url(#ih-2)"/><rect x="942.5" y="299.0" width="59" height="58" fill="url(#ih-2)"/><rect x="-69.5" y="391.0" width="59" height="58" fill="url(#ih-1)"/><rect x="114.5" y="391.0" width="59" height="58" fill="url(#ih-1)"/><rect x="298.5" y="391.0" width="59" height="58" fill="url(#ih-1)"/><rect x="482.5" y="391.0" width="59" height="58" fill="url(#ih-1)"/><rect x="666.5" y="391.0" width="59" height="58" fill="url(#ih-1)"/><rect x="850.5" y="391.0" width="59" height="58" fill="url(#ih-1)"/><rect x="1034.5" y="391.0" width="59" height="58" fill="url(#ih-1)"/><rect x="22.5" y="483.0" width="59" height="58" fill="url(#ih0)"/><rect x="206.5" y="483.0" width="59" height="58" fill="url(#ih0)"/><rect x="390.5" y="483.0" width="59" height="58" fill="url(#ih0)"/><rect x="574.5" y="483.0" width="59" height="58" fill="url(#ih0)"/><rect x="758.5" y="483.0" width="59" height="58" fill="url(#ih0)"/><rect x="942.5" y="483.0" width="59" height="58" fill="url(#ih0)"/><rect x="-69.5" y="575.0" width="59" height="58" fill="url(#ih1)"/><rect x="114.5" y="575.0" width="59" height="58" fill="url(#ih1)"/><rect x="298.5" y="575.0" width="59" height="58" fill="url(#ih1)"/><rect x="482.5" y="575.0" width="59" height="58" fill="url(#ih1)"/><rect x="666.5" y="575.0" width="59" height="58" fill="url(#ih1)"/><rect x="850.5" y="575.0" width="59" height="58" fill="url(#ih1)"/><rect x="1034.5" y="575.0" width="59" height="58" fill="url(#ih1)"/><rect x="22.5" y="667.0" width="59" height="58" fill="url(#ih2)"/><rect x="206.5" y="667.0" width="59" height="58" fill="url(#ih2)"/><rect x="390.5" y="667.0" width="59" height="58" fill="url(#ih2)"/><rect x="574.5" y="667.0" width="59" height="58" fill="url(#ih2)"/><rect x="758.5" y="667.0" width="59" height="58" fill="url(#ih2)"/><rect x="942.5" y="667.0" width="59" height="58" fill="url(#ih2)"/><rect x="-69.5" y="759.0" width="59" height="58" fill="url(#ih3)"/><rect x="114.5" y="759.0" width="59" height="58" fill="url(#ih3)"/><rect x="298.5" y="759.0" width="59" height="58" fill="url(#ih3)"/><rect x="482.5" y="759.0" width="59" height="58" fill="url(#ih3)"/><rect x="666.5" y="759.0" width="59" height="58" fill="url(#ih3)"/><rect x="850.5" y="759.0" width="59" height="58" fill="url(#ih3)"/><rect x="1034.5" y="759.0" width="59" height="58" fill="url(#ih3)"/><rect x="22.5" y="851.0" width="59" height="58" fill="url(#ih4)"/><rect x="206.5" y="851.0" width="59" height="58" fill="url(#ih4)"/><rect x="390.5" y="851.0" width="59" height="58" fill="url(#ih4)"/><rect x="574.5" y="851.0" width="59" height="58" fill="url(#ih4)"/><rect x="758.5" y="851.0" width="59" height="58" fill="url(#ih4)"/><rect x="942.5" y="851.0" width="59" height="58" fill="url(#ih4)"/><rect x="-69.5" y="943.0" width="59" height="58" fill="url(#ih5)"/><rect x="114.5" y="943.0" width="59" height="58" fill="url(#ih5)"/><rect x="298.5" y="943.0" width="59" height="58" fill="url(#ih5)"/><rect x="482.5" y="943.0" width="59" height="58" fill="url(#ih5)"/><rect x="666.5" y="943.0" width="59" height="58" fill="url(#ih5)"/><rect x="850.5" y="943.0" width="59" height="58" fill="url(#ih5)"/><rect x="1034.5" y="943.0" width="59" height="58" fill="url(#ih5)"/><rect x="22.5" y="1035.0" width="59" height="58" fill="url(#ih6)"/><rect x="206.5" y="1035.0" width="59" height="58" fill="url(#ih6)"/><rect x="390.5" y="1035.0" width="59" height="58" fill="url(#ih6)"/><rect x="574.5" y="1035.0" width="59" height="58" fill="url(#ih6)"/><rect x="758.5" y="1035.0" width="59" height="58" fill="url(#ih6)"/><rect x="942.5" y="1035.0" width="59" height="58" fill="url(#ih6)"/></g>
<rect width="1024" height="1024" fill="url(#ivig)"/>
<path d="M446.116 847.36Q410.756 847.36 390.996 819.28Q371.236 791.2 384.756 728.8L471.076 352.32Q474.196 336.71999999999997 458.596 336.71999999999997H419.076Q404.516 336.71999999999997 404.516 323.19999999999993Q404.516 315.91999999999996 409.716 311.76Q414.916 307.6 422.196 307.6H459.636Q483.55600000000004 307.6 487.716 285.76L512.676 174.48000000000002Q515.796 163.03999999999996 527.236 163.03999999999996H569.876Q584.436 163.03999999999996 581.316 176.55999999999995L555.316 292.0Q552.196 307.6 567.796 307.6H627.076Q644.7560000000001 307.6 644.7560000000001 321.12Q644.7560000000001 336.71999999999997 622.9159999999999 336.71999999999997H566.756Q543.876 336.71999999999997 538.676 358.56L451.31600000000003 739.2Q446.116 762.08 452.876 775.08Q459.636 788.08 476.276 788.08Q500.196 788.08 520.476 761.04Q540.756 734.0 563.636 658.0799999999999Q567.796 644.56 577.156 644.56Q584.436 644.56 586.5160000000001 650.8Q588.596 657.04 583.396 673.6800000000001Q563.636 744.4 540.236 781.8399999999999Q516.836 819.28 492.916 833.3199999999999Q468.996 847.36 446.116 847.36Z" fill="#FF8A4C" opacity=".7" filter="url(#iblur50)"/>
<path d="M446.116 847.36Q410.756 847.36 390.996 819.28Q371.236 791.2 384.756 728.8L471.076 352.32Q474.196 336.71999999999997 458.596 336.71999999999997H419.076Q404.516 336.71999999999997 404.516 323.19999999999993Q404.516 315.91999999999996 409.716 311.76Q414.916 307.6 422.196 307.6H459.636Q483.55600000000004 307.6 487.716 285.76L512.676 174.48000000000002Q515.796 163.03999999999996 527.236 163.03999999999996H569.876Q584.436 163.03999999999996 581.316 176.55999999999995L555.316 292.0Q552.196 307.6 567.796 307.6H627.076Q644.7560000000001 307.6 644.7560000000001 321.12Q644.7560000000001 336.71999999999997 622.9159999999999 336.71999999999997H566.756Q543.876 336.71999999999997 538.676 358.56L451.31600000000003 739.2Q446.116 762.08 452.876 775.08Q459.636 788.08 476.276 788.08Q500.196 788.08 520.476 761.04Q540.756 734.0 563.636 658.0799999999999Q567.796 644.56 577.156 644.56Q584.436 644.56 586.5160000000001 650.8Q588.596 657.04 583.396 673.6800000000001Q563.636 744.4 540.236 781.8399999999999Q516.836 819.28 492.916 833.3199999999999Q468.996 847.36 446.116 847.36Z" fill="#000" opacity=".5" transform="translate(0 14)" filter="url(#iblur10)"/>
<path d="M446.116 847.36Q410.756 847.36 390.996 819.28Q371.236 791.2 384.756 728.8L471.076 352.32Q474.196 336.71999999999997 458.596 336.71999999999997H419.076Q404.516 336.71999999999997 404.516 323.19999999999993Q404.516 315.91999999999996 409.716 311.76Q414.916 307.6 422.196 307.6H459.636Q483.55600000000004 307.6 487.716 285.76L512.676 174.48000000000002Q515.796 163.03999999999996 527.236 163.03999999999996H569.876Q584.436 163.03999999999996 581.316 176.55999999999995L555.316 292.0Q552.196 307.6 567.796 307.6H627.076Q644.7560000000001 307.6 644.7560000000001 321.12Q644.7560000000001 336.71999999999997 622.9159999999999 336.71999999999997H566.756Q543.876 336.71999999999997 538.676 358.56L451.31600000000003 739.2Q446.116 762.08 452.876 775.08Q459.636 788.08 476.276 788.08Q500.196 788.08 520.476 761.04Q540.756 734.0 563.636 658.0799999999999Q567.796 644.56 577.156 644.56Q584.436 644.56 586.5160000000001 650.8Q588.596 657.04 583.396 673.6800000000001Q563.636 744.4 540.236 781.8399999999999Q516.836 819.28 492.916 833.3199999999999Q468.996 847.36 446.116 847.36Z" fill="url(#it)"/>
<path d="M446.116 847.36Q410.756 847.36 390.996 819.28Q371.236 791.2 384.756 728.8L471.076 352.32Q474.196 336.71999999999997 458.596 336.71999999999997H419.076Q404.516 336.71999999999997 404.516 323.19999999999993Q404.516 315.91999999999996 409.716 311.76Q414.916 307.6 422.196 307.6H459.636Q483.55600000000004 307.6 487.716 285.76L512.676 174.48000000000002Q515.796 163.03999999999996 527.236 163.03999999999996H569.876Q584.436 163.03999999999996 581.316 176.55999999999995L555.316 292.0Q552.196 307.6 567.796 307.6H627.076Q644.7560000000001 307.6 644.7560000000001 321.12Q644.7560000000001 336.71999999999997 622.9159999999999 336.71999999999997H566.756Q543.876 336.71999999999997 538.676 358.56L451.31600000000003 739.2Q446.116 762.08 452.876 775.08Q459.636 788.08 476.276 788.08Q500.196 788.08 520.476 761.04Q540.756 734.0 563.636 658.0799999999999Q567.796 644.56 577.156 644.56Q584.436 644.56 586.5160000000001 650.8Q588.596 657.04 583.396 673.6800000000001Q563.636 744.4 540.236 781.8399999999999Q516.836 819.28 492.916 833.3199999999999Q468.996 847.36 446.116 847.36Z" fill="none" stroke="#fff" stroke-opacity=".28" stroke-width="2.5"/>
<path d="M924.00,512.00 L923.99,584.72 L923.94,607.95 L923.87,624.84 L923.77,638.60 L923.65,650.40 L923.49,660.85 L923.31,670.30 L923.10,678.95 L922.86,686.97 L922.59,694.46 L922.29,701.51 L921.96,708.17 L921.61,714.49 L921.23,720.52 L920.81,726.28 L920.37,731.81 L919.91,737.12 L919.41,742.23 L918.88,747.17 L918.33,751.94 L917.74,756.55 L917.13,761.02 L916.48,765.36 L915.81,769.57 L915.11,773.66 L914.38,777.64 L913.62,781.52 L912.83,785.29 L912.01,788.97 L911.16,792.56 L910.28,796.07 L909.36,799.49 L908.42,802.83 L907.45,806.10 L906.45,809.29 L905.41,812.41 L904.35,815.46 L903.25,818.45 L902.12,821.38 L900.96,824.24 L899.77,827.04 L898.55,829.78 L897.29,832.47 L896.00,835.10 L894.68,837.68 L893.32,840.21 L891.94,842.68 L890.51,845.11 L889.06,847.48 L887.56,849.81 L886.04,852.09 L884.48,854.33 L882.88,856.52 L881.25,858.67 L879.58,860.77 L877.87,862.83 L876.13,864.85 L874.34,866.83 L872.53,868.77 L870.67,870.67 L868.77,872.53 L866.83,874.34 L864.85,876.13 L862.83,877.87 L860.77,879.58 L858.67,881.25 L856.52,882.88 L854.33,884.48 L852.09,886.04 L849.81,887.56 L847.48,889.06 L845.11,890.51 L842.68,891.94 L840.21,893.32 L837.68,894.68 L835.10,896.00 L832.47,897.29 L829.78,898.55 L827.04,899.77 L824.24,900.96 L821.38,902.12 L818.45,903.25 L815.46,904.35 L812.41,905.41 L809.29,906.45 L806.10,907.45 L802.83,908.42 L799.49,909.36 L796.07,910.28 L792.56,911.16 L788.97,912.01 L785.29,912.83 L781.52,913.62 L777.64,914.38 L773.66,915.11 L769.57,915.81 L765.36,916.48 L761.02,917.13 L756.55,917.74 L751.94,918.33 L747.17,918.88 L742.23,919.41 L737.12,919.91 L731.81,920.37 L726.28,920.81 L720.52,921.23 L714.49,921.61 L708.17,921.96 L701.51,922.29 L694.46,922.59 L686.97,922.86 L678.95,923.10 L670.30,923.31 L660.85,923.49 L650.40,923.65 L638.60,923.77 L624.84,923.87 L607.95,923.94 L584.72,923.99 L512.00,924.00 L439.28,923.99 L416.05,923.94 L399.16,923.87 L385.40,923.77 L373.60,923.65 L363.15,923.49 L353.70,923.31 L345.05,923.10 L337.03,922.86 L329.54,922.59 L322.49,922.29 L315.83,921.96 L309.51,921.61 L303.48,921.23 L297.72,920.81 L292.19,920.37 L286.88,919.91 L281.77,919.41 L276.83,918.88 L272.06,918.33 L267.45,917.74 L262.98,917.13 L258.64,916.48 L254.43,915.81 L250.34,915.11 L246.36,914.38 L242.48,913.62 L238.71,912.83 L235.03,912.01 L231.44,911.16 L227.93,910.28 L224.51,909.36 L221.17,908.42 L217.90,907.45 L214.71,906.45 L211.59,905.41 L208.54,904.35 L205.55,903.25 L202.62,902.12 L199.76,900.96 L196.96,899.77 L194.22,898.55 L191.53,897.29 L188.90,896.00 L186.32,894.68 L183.79,893.32 L181.32,891.94 L178.89,890.51 L176.52,889.06 L174.19,887.56 L171.91,886.04 L169.67,884.48 L167.48,882.88 L165.33,881.25 L163.23,879.58 L161.17,877.87 L159.15,876.13 L157.17,874.34 L155.23,872.53 L153.33,870.67 L151.47,868.77 L149.66,866.83 L147.87,864.85 L146.13,862.83 L144.42,860.77 L142.75,858.67 L141.12,856.52 L139.52,854.33 L137.96,852.09 L136.44,849.81 L134.94,847.48 L133.49,845.11 L132.06,842.68 L130.68,840.21 L129.32,837.68 L128.00,835.10 L126.71,832.47 L125.45,829.78 L124.23,827.04 L123.04,824.24 L121.88,821.38 L120.75,818.45 L119.65,815.46 L118.59,812.41 L117.55,809.29 L116.55,806.10 L115.58,802.83 L114.64,799.49 L113.72,796.07 L112.84,792.56 L111.99,788.97 L111.17,785.29 L110.38,781.52 L109.62,777.64 L108.89,773.66 L108.19,769.57 L107.52,765.36 L106.87,761.02 L106.26,756.55 L105.67,751.94 L105.12,747.17 L104.59,742.23 L104.09,737.12 L103.63,731.81 L103.19,726.28 L102.77,720.52 L102.39,714.49 L102.04,708.17 L101.71,701.51 L101.41,694.46 L101.14,686.97 L100.90,678.95 L100.69,670.30 L100.51,660.85 L100.35,650.40 L100.23,638.60 L100.13,624.84 L100.06,607.95 L100.01,584.72 L100.00,512.00 L100.01,439.28 L100.06,416.05 L100.13,399.16 L100.23,385.40 L100.35,373.60 L100.51,363.15 L100.69,353.70 L100.90,345.05 L101.14,337.03 L101.41,329.54 L101.71,322.49 L102.04,315.83 L102.39,309.51 L102.77,303.48 L103.19,297.72 L103.63,292.19 L104.09,286.88 L104.59,281.77 L105.12,276.83 L105.67,272.06 L106.26,267.45 L106.87,262.98 L107.52,258.64 L108.19,254.43 L108.89,250.34 L109.62,246.36 L110.38,242.48 L111.17,238.71 L111.99,235.03 L112.84,231.44 L113.72,227.93 L114.64,224.51 L115.58,221.17 L116.55,217.90 L117.55,214.71 L118.59,211.59 L119.65,208.54 L120.75,205.55 L121.88,202.62 L123.04,199.76 L124.23,196.96 L125.45,194.22 L126.71,191.53 L128.00,188.90 L129.32,186.32 L130.68,183.79 L132.06,181.32 L133.49,178.89 L134.94,176.52 L136.44,174.19 L137.96,171.91 L139.52,169.67 L141.12,167.48 L142.75,165.33 L144.42,163.23 L146.13,161.17 L147.87,159.15 L149.66,157.17 L151.47,155.23 L153.33,153.33 L155.23,151.47 L157.17,149.66 L159.15,147.87 L161.17,146.13 L163.23,144.42 L165.33,142.75 L167.48,141.12 L169.67,139.52 L171.91,137.96 L174.19,136.44 L176.52,134.94 L178.89,133.49 L181.32,132.06 L183.79,130.68 L186.32,129.32 L188.90,128.00 L191.53,126.71 L194.22,125.45 L196.96,124.23 L199.76,123.04 L202.62,121.88 L205.55,120.75 L208.54,119.65 L211.59,118.59 L214.71,117.55 L217.90,116.55 L221.17,115.58 L224.51,114.64 L227.93,113.72 L231.44,112.84 L235.03,111.99 L238.71,111.17 L242.48,110.38 L246.36,109.62 L250.34,108.89 L254.43,108.19 L258.64,107.52 L262.98,106.87 L267.45,106.26 L272.06,105.67 L276.83,105.12 L281.77,104.59 L286.88,104.09 L292.19,103.63 L297.72,103.19 L303.48,102.77 L309.51,102.39 L315.83,102.04 L322.49,101.71 L329.54,101.41 L337.03,101.14 L345.05,100.90 L353.70,100.69 L363.15,100.51 L373.60,100.35 L385.40,100.23 L399.16,100.13 L416.05,100.06 L439.28,100.01 L512.00,100.00 L584.72,100.01 L607.95,100.06 L624.84,100.13 L638.60,100.23 L650.40,100.35 L660.85,100.51 L670.30,100.69 L678.95,100.90 L686.97,101.14 L694.46,101.41 L701.51,101.71 L708.17,102.04 L714.49,102.39 L720.52,102.77 L726.28,103.19 L731.81,103.63 L737.12,104.09 L742.23,104.59 L747.17,105.12 L751.94,105.67 L756.55,106.26 L761.02,106.87 L765.36,107.52 L769.57,108.19 L773.66,108.89 L777.64,109.62 L781.52,110.38 L785.29,111.17 L788.97,111.99 L792.56,112.84 L796.07,113.72 L799.49,114.64 L802.83,115.58 L806.10,116.55 L809.29,117.55 L812.41,118.59 L815.46,119.65 L818.45,120.75 L821.38,121.88 L824.24,123.04 L827.04,124.23 L829.78,125.45 L832.47,126.71 L835.10,128.00 L837.68,129.32 L840.21,130.68 L842.68,132.06 L845.11,133.49 L847.48,134.94 L849.81,136.44 L852.09,137.96 L854.33,139.52 L856.52,141.12 L858.67,142.75 L860.77,144.42 L862.83,146.13 L864.85,147.87 L866.83,149.66 L868.77,151.47 L870.67,153.33 L872.53,155.23 L874.34,157.17 L876.13,159.15 L877.87,161.17 L879.58,163.23 L881.25,165.33 L882.88,167.48 L884.48,169.67 L886.04,171.91 L887.56,174.19 L889.06,176.52 L890.51,178.89 L891.94,181.32 L893.32,183.79 L894.68,186.32 L896.00,188.90 L897.29,191.53 L898.55,194.22 L899.77,196.96 L900.96,199.76 L902.12,202.62 L903.25,205.55 L904.35,208.54 L905.41,211.59 L906.45,214.71 L907.45,217.90 L908.42,221.17 L909.36,224.51 L910.28,227.93 L911.16,231.44 L912.01,235.03 L912.83,238.71 L913.62,242.48 L914.38,246.36 L915.11,250.34 L915.81,254.43 L916.48,258.64 L917.13,262.98 L917.74,267.45 L918.33,272.06 L918.88,276.83 L919.41,281.77 L919.91,286.88 L920.37,292.19 L920.81,297.72 L921.23,303.48 L921.61,309.51 L921.96,315.83 L922.29,322.49 L922.59,329.54 L922.86,337.03 L923.10,345.05 L923.31,353.70 L923.49,363.15 L923.65,373.60 L923.77,385.40 L923.87,399.16 L923.94,416.05 L923.99,439.28 Z" fill="none" stroke="url(#irim)" stroke-width="7"/>
</g>
</svg>